<svg viewBox = "0 0 88 88" width="88" height="88" xmlns="http://www.w3.org/2000/svg"><g transform="matrix(1 0 0 1 44 44)"  ><g style=""   ><g transform="matrix(1 0 0 1 19.31 10.13)"  ><path style="stroke: none; stroke-width: 1; stroke-dasharray: none; stroke-linecap: butt; stroke-dashoffset: 0; stroke-linejoin: miter; stroke-miterlimit: 4; fill: rgb(230,105,15); fill-rule: evenodd; opacity: 1;"  transform=" translate(-63.31, -54.13)" d="M 45.9047 47.7961 L 44.9776 48.8468 L 52.2896 56.6462 L 57.1643 68.8329 L 57.1643 73.7075 L 59.2492 71.6839 C 58.5713 74.0125 57.3786 76.3719 55.8386 78.298 L 56.2406 78.6447 L 77.5591 57.6139 L 78.2185 56.9679 C 81.3007 53.9477 83 49.9244 83 45.6384 C 83 41.3524 81.3007 37.329 78.2185 34.3089 C 75.029 31.1837 70.8425 29.6237 66.656 29.6237 C 62.4695 29.6237 58.283 31.1837 55.0935 34.3089 L 43.6168 45.5543 L 45.9047 47.7961 Z" stroke-linecap="round" /></g><g transform="matrix(1 0 0 1 -11.29 12.79)"  ><path style="stroke: none; stroke-width: 1; stroke-dasharray: none; stroke-linecap: butt; stroke-dashoffset: 0; stroke-linejoin: miter; stroke-miterlimit: 4; fill: rgb(243,139,64); fill-rule: evenodd; opacity: 1;"  transform=" translate(-32.71, -56.79)" d="M 32.5313 79.2593 L 9.78689 56.9732 L 9.78153 56.9837 C 6.69927 53.9636 5.00001 49.9402 5.00001 45.6542 C 5.00001 41.3682 6.69927 37.3449 9.78153 34.3247 C 12.8638 31.3046 16.9699 29.6396 21.344 29.6396 C 25.7182 29.6396 29.8243 31.3046 32.9065 34.3247 L 55.6509 56.6108 C 55.8171 56.7684 55.9725 56.9312 56.128 57.0993 C 58.6421 59.7728 60.1537 63.2551 60.3949 66.8951 C 60.6576 70.8396 59.4354 74.7159 56.9642 77.8096 C 56.7391 78.088 56.4979 78.3664 56.2513 78.6395 C 56.211 78.6822 56.1709 78.7249 56.1308 78.7676 C 55.9738 78.9348 55.8175 79.1013 55.6509 79.2645 C 54.4341 80.4516 53.0457 81.4443 51.5126 82.2059 C 49.2291 83.3457 46.6614 83.9445 44.0884 83.9445 L 44.0027 83.9445 C 39.666 83.9182 35.5921 82.2584 32.5313 79.2593 Z" stroke-linecap="round" /></g><g transform="matrix(1 0 0 1 -0.03 -21.03)"  ><path style="stroke: none; stroke-width: 1; stroke-dasharray: none; stroke-linecap: butt; stroke-dashoffset: 0; stroke-linejoin: miter; stroke-miterlimit: 4; fill: rgb(127,109,97); fill-rule: nonzero; opacity: 1;"  transform=" translate(-43.97, -22.97)" d="M 52.2464 28.8177 C 56.8152 24.2489 56.8152 16.8414 52.2464 12.2726 L 52.2464 12.2726 C 47.6776 7.70378 40.27 7.70378 35.7012 12.2726 L 35.7012 12.2726 C 31.1324 16.8414 31.1324 24.2489 35.7012 28.8177 L 43.9738 37.0903 L 52.2464 28.8177 Z" stroke-linecap="round" /></g></g></g></svg>