<svg width="32" height="32" viewBox="0 0 32 32" fill="none" xmlns="http://www.w3.org/2000/svg">
<g clip-path="url(#clip0_11004_10)">
<path d="M21 12.5C22.0967 14.8394 22.0719 17.111 20.3806 19.2927C19.2444 20.7584 17.6145 21.3217 15.828 21.3708C11.9509 21.3708 8.32365 19.5516 6.28684 16.1976C4.59973 13.4262 4.26239 9.95429 5.36831 6.90871C6.28143 4.41086 7.46084 2.81087 10.0483 1C7.52869 2.02146 5.29217 3.66815 3.56093 5.8041C-1.52218 12.0755 -1.11525 21.4004 4.47367 27.2061C7.35443 30.1986 11.8078 32.0031 16 32C21.8712 32 26.52 27.2522 26.5205 21.3837C26.5208 17.3191 24.6405 14.301 21 12.5Z" fill="#4285F4"/>
<path d="M11 19.5C9.90325 17.1606 9.92815 14.889 11.6194 12.7073C12.7556 11.2416 14.3855 10.6783 16.172 10.6292C20.0491 10.6292 23.6764 12.4484 25.7132 15.8024C27.4003 18.5738 27.7376 22.0457 26.6317 25.0913C25.7186 27.5891 24.5392 29.1891 21.9517 31C24.4713 29.9785 26.7078 28.3318 28.4391 26.1959C33.5222 19.9245 33.1152 10.5996 27.5263 4.79389C24.6456 1.8014 20.1922 -0.00309284 16 -1.39876e-06C10.1288 -1.91204e-06 5.47997 4.74776 5.47949 10.6163C5.47919 14.6809 7.35947 17.699 11 19.5Z" fill="#4285F4"/>
</g>
<defs>
<clipPath id="clip0_11004_10">
<rect width="32" height="32" fill="white"/>
</clipPath>
</defs>
</svg>
