<?xml version="1.0" standalone="no"?>
<!DOCTYPE svg PUBLIC "-//W3C//DTD SVG 20010904//EN"
 "http://www.w3.org/TR/2001/REC-SVG-20010904/DTD/svg10.dtd">
<svg version="1.0" xmlns="http://www.w3.org/2000/svg"
 viewBox="0 0 2600.000000 2600.000000"
 preserveAspectRatio="xMidYMid meet">
<metadata>
Created by potrace 1.15, written by Peter Selinger 2001-2017
</metadata>
<g transform="translate(0.000000,2600.000000) scale(0.100000,-0.100000)"
fill="#000000" stroke="none">
<path d="M13050 21294 c-774 -36 -1400 -140 -2097 -350 -1038 -312 -2050 -853
-2911 -1557 -245 -201 -389 -333 -663 -606 -404 -405 -647 -689 -954 -1116
-885 -1231 -1442 -2668 -1604 -4140 -38 -343 -46 -495 -46 -895 0 -385 8 -553
41 -850 189 -1724 930 -3368 2143 -4755 1460 -1668 3478 -2754 5546 -2984
1355 -151 2791 54 4100 586 1952 793 3578 2281 4546 4158 468 908 778 1929
888 2920 42 375 46 463 46 945 0 468 -4 564 -41 905 -137 1295 -590 2586
-1298 3700 -577 908 -1306 1696 -2174 2348 -1145 861 -2497 1422 -3892 1617
-394 54 -634 70 -1130 74 -234 2 -459 2 -500 0z m4050 -1451 c30 -17 166 -89
301 -161 470 -249 619 -347 959 -631 359 -299 788 -708 1062 -1010 1131 -1249
1787 -2623 1992 -4171 55 -411 70 -716 63 -1250 -6 -435 -17 -620 -58 -980
-157 -1379 -623 -2613 -1383 -3660 -641 -884 -1484 -1637 -2556 -2285 -338
-204 -812 -452 -1085 -568 -846 -359 -1751 -537 -2735 -537 -347 0 -794 30
-1036 70 -1149 188 -2282 1129 -2789 2316 -172 403 -258 801 -287 1325 -29
522 48 1040 223 1508 347 924 1039 1684 1984 2176 334 175 688 300 1027 364
264 50 319 54 808 56 500 1 558 6 830 61 1097 225 2164 1007 2838 2081 111
177 289 527 361 711 295 751 351 1429 190 2297 -111 598 -318 1203 -719 2105
-46 102 -89 200 -97 219 l-14 33 33 -19 c18 -11 58 -34 88 -50z m-3370 -1788
c417 -85 726 -363 853 -770 44 -142 61 -264 60 -450 0 -199 -18 -319 -69 -475
-127 -384 -398 -616 -824 -707 -120 -26 -485 -26 -615 0 -436 87 -714 315
-839 690 -79 238 -92 610 -31 863 113 471 484 795 987 863 99 13 386 5 478
-14z"/>
<path d="M13175 9654 c-393 -61 -676 -254 -825 -565 -131 -275 -165 -660 -86
-972 68 -265 202 -479 403 -638 437 -348 1154 -336 1571 25 275 237 413 564
413 975 -2 766 -443 1194 -1226 1190 -88 -1 -200 -7 -250 -15z"/>
</g>
</svg>
